# xmcd CD database file
#
# Track frame offsets:
#	150
#	20476
#	38657
#	63480
#	82609
#	99241
#	117383
#	134254
#	166264
#	184399
#	208324
#	237538
#	278090
#	306691
#
# Disc length: 4275 seconds
#
# Revision: 0
# Processed by: cddbd v1.5.1PL0 Copyright (c) Steve Scherf et al.
# Submitted via: CDex 1.51
#
DISCID=c510b10e
DTITLE=Chamin Correa - Cueras, amor y Guitarra Vol. 5
DYEAR=2004
DGENRE=Bolero
TTITLE0=01-Chamin Correa-Dígale
TTITLE1=02-Chamin Correa-Cielo
TTITLE2=03-Chamin Correa-Mi historia entre tus dedos
TTITLE3=04-Chamin Correa-Entra en mi vida
TTITLE4=05-Chamin CorreaMiedo
TTITLE5=06-Chamin Correa-Te llamé
TTITLE6=07-Chamin Correa-Todo a pulmón
TTITLE7=08-Chamin CorreaHotel California
TTITLE8=09-Chamin Correa-Zorba el Griego
TTITLE9=10-Chamin Correa-Sin miedo a nada
TTITLE10=11-Chamin Correa-Popurri Mariachi(Loco, Lástima que seas ajena,Nube Viajera)
TTITLE11=12-Chamin Correa-Popurrí Boleros
TTITLE12=13-Chamin Correa-Chan chan-Guantanamera
TTITLE13=14-Chamin Correa-Zorba el Griego (Remix)
EXTD=YEAR: 2004
EXTT0=
EXTT1=
EXTT2=
EXTT3=
EXTT4=
EXTT5=
EXTT6=
EXTT7=
EXTT8=
EXTT9=
EXTT10=
EXTT11=
EXTT12=
EXTT13=
PLAYORDER=
